<?xml version="1.0" standalone="no"?>
<!DOCTYPE svg PUBLIC "-//W3C//DTD SVG 20010904//EN"
 "http://www.w3.org/TR/2001/REC-SVG-20010904/DTD/svg10.dtd">
<svg version="1.0" xmlns="http://www.w3.org/2000/svg"
 width="1280.000000pt" height="1280.000000pt" viewBox="0 0 1280.000000 1280.000000"
 preserveAspectRatio="xMidYMid meet">

<g transform="translate(0.000000,1280.000000) scale(0.100000,-0.100000)"
fill="#000000" stroke="none">
<path d="M6002 7889 c-157 -78 -162 -309 -7 -404 44 -27 56 -30 138 -30 l89 0
55 -70 c30 -39 110 -142 176 -229 164 -214 184 -236 216 -236 40 0 73 22 87
56 12 30 11 35 -19 77 -18 25 -51 65 -73 89 -21 24 -55 63 -74 88 -19 25 -85
105 -147 178 -62 73 -113 139 -113 146 0 7 7 33 15 56 8 23 15 59 15 79 -1 74
-65 170 -135 202 -58 27 -167 25 -223 -2z m196 -81 c36 -22 75 -92 75 -135 0
-68 -108 -152 -175 -137 -67 14 -98 36 -123 89 -29 58 -24 93 19 149 51 68
129 81 204 34z"/>
<path d="M6892 7889 c-79 -39 -132 -126 -132 -217 0 -113 87 -216 203 -237 20
-4 40 -11 43 -17 3 -5 29 -75 58 -156 l52 -147 -19 -62 c-17 -58 -18 -66 -3
-116 52 -177 281 -180 340 -5 33 100 -27 207 -134 239 -22 7 -45 18 -50 24 -6
7 -35 70 -65 140 l-54 126 31 32 c70 73 94 198 53 282 -26 54 -86 109 -133
123 -62 19 -141 15 -190 -9z m179 -82 c105 -70 104 -193 -1 -264 -71 -49 -164
-19 -208 67 -37 73 -13 150 60 194 54 32 104 33 149 3z"/>
<path d="M5819 7139 c-88 -9 -186 -44 -262 -92 -50 -32 -201 -176 -194 -184 2
-2 30 -8 63 -13 32 -6 78 -15 102 -22 43 -11 44 -11 85 30 86 84 200 111 465
112 69 0 132 5 144 11 55 29 53 125 -3 154 -31 17 -261 19 -400 4z"/>
<path d="M7560 7000 c0 -49 1 -90 3 -91 1 0 65 -4 142 -8 220 -12 356 -69 448
-186 l44 -56 112 -2 c61 -1 111 1 111 4 0 21 -95 145 -159 209 -83 83 -184
142 -304 179 -61 18 -257 41 -358 41 l-39 0 0 -90z"/>
<path d="M1545 6796 c-124 -40 -227 -124 -273 -224 -21 -45 -27 -75 -30 -147
-5 -120 19 -187 96 -268 74 -77 136 -110 328 -177 256 -89 330 -146 328 -254
-1 -72 -28 -122 -88 -162 -91 -60 -211 -68 -317 -22 -60 25 -131 100 -155 163
l-17 45 -124 0 -125 0 7 -32 c60 -281 300 -462 590 -445 290 17 492 230 472
498 -16 210 -134 323 -440 425 -255 84 -317 130 -317 232 0 89 99 162 219 162
37 0 88 -7 113 -16 56 -18 121 -72 138 -114 l12 -30 119 0 c135 0 130 -4 100
83 -39 111 -121 201 -236 258 -68 33 -72 34 -215 36 -99 2 -158 -2 -185 -11z"/>
<path d="M10480 6056 l0 -755 125 -3 124 -3 3 365 c3 355 4 366 25 406 36 68
94 110 168 124 110 21 187 -10 232 -93 16 -29 18 -72 21 -414 l3 -383 120 0
120 0 -3 418 c-3 377 -5 422 -22 467 -28 76 -72 133 -134 172 -168 108 -380
69 -487 -89 l-32 -48 -7 76 c-3 43 -6 175 -6 296 l0 218 -125 0 -125 0 0 -754z"/>
<path d="M5250 6021 l0 -708 46 -7 c26 -3 77 -6 114 -6 l67 0 6 113 c4 61 7
137 7 168 l0 56 75 72 c41 39 78 71 83 71 4 -1 39 -47 78 -103 39 -56 115
-164 169 -239 l99 -138 153 0 c104 0 153 4 153 11 0 6 -20 34 -44 62 -24 29
-112 144 -196 257 -85 113 -173 227 -197 254 -24 26 -43 53 -43 60 0 6 27 38
61 71 33 33 124 126 201 208 l140 147 -138 0 -138 0 -226 -225 c-124 -124
-229 -225 -232 -225 -4 0 -5 182 -2 405 l5 405 -120 0 -121 0 0 -709z"/>
<path d="M6180 6725 c0 -3 25 -112 56 -243 56 -236 132 -569 220 -963 l47
-207 45 -6 c67 -9 220 -7 226 3 6 9 71 295 155 676 26 116 51 209 56 208 12
-2 48 -136 104 -378 79 -348 114 -490 123 -501 6 -8 53 -12 133 -13 111 -2
124 0 129 16 19 66 221 899 251 1033 20 91 47 211 60 267 14 56 25 105 25 108
0 3 -58 5 -130 5 l-129 0 -6 -37 c-10 -61 -123 -642 -163 -841 -20 -101 -41
-184 -47 -184 -10 -1 -42 132 -140 582 -31 146 -68 310 -81 364 -13 54 -21
103 -18 107 3 5 -42 9 -99 9 -100 0 -105 -1 -109 -22 -3 -13 -22 -94 -42 -181
-20 -87 -68 -303 -105 -480 -38 -177 -75 -338 -84 -357 -17 -42 -14 -52 -51
150 -14 74 -57 304 -95 510 -39 206 -71 376 -71 378 0 5 -260 2 -260 -3z"/>
<path d="M2570 6620 l-115 -36 -5 -105 -5 -104 -105 -5 -105 -5 -3 -87 -3 -88
111 0 110 0 0 -317 c1 -350 6 -390 67 -469 60 -80 143 -112 304 -119 l119 -5
0 113 0 113 -67 1 c-85 1 -114 12 -150 59 l-28 37 -3 294 -3 293 135 0 136 0
0 90 0 90 -135 0 -134 0 -3 143 -3 143 -115 -36z"/>
<path d="M8973 6617 l-113 -39 0 -98 0 -97 -31 -7 c-17 -3 -58 -6 -90 -6 l-59
0 0 -49 c0 -26 3 -68 6 -93 l6 -44 84 4 84 5 0 -321 c0 -293 2 -325 20 -385
26 -85 83 -145 166 -177 49 -19 80 -23 179 -24 l120 -1 3 106 3 106 -74 5
c-94 6 -139 31 -162 91 -13 35 -15 85 -13 317 l3 275 125 5 125 5 0 88 0 87
-117 0 c-154 0 -149 -5 -147 157 1 68 0 125 -2 126 -2 2 -55 -15 -116 -36z"/>
<path d="M3410 6406 c-181 -40 -331 -175 -391 -354 -20 -57 -23 -87 -22 -202
1 -151 17 -215 84 -326 71 -117 217 -219 358 -249 93 -19 130 -19 218 4 227
59 383 217 430 434 17 84 13 242 -9 324 -46 165 -212 321 -394 368 -68 18
-196 18 -274 1z m244 -237 c71 -26 146 -106 176 -187 32 -86 26 -215 -15 -297
-37 -72 -77 -115 -141 -146 -40 -20 -65 -24 -134 -24 -76 0 -91 3 -139 30
-108 60 -166 171 -164 315 3 242 202 390 417 309z"/>
<path d="M4600 6409 c-299 -58 -481 -329 -439 -654 13 -107 37 -176 86 -247
89 -132 214 -208 389 -237 61 -11 81 -10 162 8 119 26 200 69 286 153 l69 67
-31 38 c-17 21 -53 60 -80 87 l-50 48 -69 -70 c-56 -57 -78 -73 -122 -86 -111
-33 -213 -10 -295 65 -77 70 -100 123 -104 244 -5 130 17 196 92 270 68 68
114 88 206 93 97 5 166 -21 232 -86 l48 -46 69 65 c94 88 95 93 30 150 -129
115 -319 169 -479 138z"/>
<path d="M9809 6405 c-244 -49 -413 -251 -426 -511 -11 -197 53 -365 187 -491
51 -49 183 -110 274 -128 71 -14 87 -14 170 0 130 22 221 68 307 154 38 38 69
73 69 78 0 5 -36 45 -80 88 l-80 78 -58 -61 c-101 -108 -212 -138 -339 -90
-147 55 -241 239 -203 399 41 172 155 269 319 269 95 0 152 -22 216 -84 l53
-52 78 68 c44 37 80 74 82 81 5 25 -109 119 -193 158 -124 57 -241 71 -376 44z"/>
<path d="M8075 6384 c-113 -24 -191 -67 -268 -150 l-27 -30 75 -68 75 -68 50
45 c61 55 122 77 212 77 87 0 129 -18 167 -71 26 -35 31 -51 31 -99 l0 -57
-127 -6 c-210 -11 -327 -46 -412 -123 -116 -104 -133 -287 -41 -426 73 -111
251 -165 405 -124 61 16 98 35 149 75 22 17 41 29 44 26 3 -3 6 -22 7 -42 l1
-38 122 -3 c67 -1 122 1 122 6 0 4 -6 14 -12 20 -10 10 -14 111 -18 410 -5
379 -6 399 -26 443 -48 103 -126 161 -270 199 -90 23 -160 24 -259 4z m315
-694 c0 -86 -1 -91 -32 -125 -53 -61 -100 -80 -198 -80 -95 0 -135 15 -165 62
-22 32 -25 100 -7 134 33 61 144 96 310 98 l92 1 0 -90z"/>
</g>
</svg>
